<svg width="25" height="31" viewBox="0 0 25 31" fill="none" xmlns="http://www.w3.org/2000/svg">
<path d="M24.7442 6.60688L18.9302 0.792923C18.7668 0.629327 18.5452 0.537313 18.314 0.537109H6.68605C6.14636 0.537109 5.62878 0.751498 5.24717 1.13311C4.86555 1.51473 4.65116 2.03231 4.65116 2.57199V5.18827H2.03488C1.4952 5.18827 0.977618 5.40266 0.596004 5.78428C0.214389 6.16589 0 6.68347 0 7.22316V28.1534C0 28.6931 0.214389 29.2107 0.596004 29.5923C0.977618 29.9739 1.4952 30.1883 2.03488 30.1883H18.314C18.8536 30.1883 19.3712 29.9739 19.7528 29.5923C20.1344 29.2107 20.3488 28.6931 20.3488 28.1534V25.5371H22.9651C23.5048 25.5371 24.0224 25.3227 24.404 24.9411C24.7856 24.5595 25 24.0419 25 23.5022V7.22316C24.9998 6.99194 24.9078 6.77027 24.7442 6.60688ZM18.6047 28.1534C18.6047 28.2305 18.574 28.3044 18.5195 28.3589C18.465 28.4135 18.3911 28.4441 18.314 28.4441H2.03488C1.95779 28.4441 1.88385 28.4135 1.82933 28.3589C1.77481 28.3044 1.74419 28.2305 1.74419 28.1534V7.22316C1.74419 7.14606 1.77481 7.07212 1.82933 7.0176C1.88385 6.96308 1.95779 6.93246 2.03488 6.93246H13.3009L18.6047 12.2362V28.1534ZM23.2558 23.5022C23.2558 23.5793 23.2252 23.6533 23.1707 23.7078C23.1162 23.7623 23.0422 23.7929 22.9651 23.7929H20.3488V11.8743C20.3486 11.6431 20.2566 11.4214 20.093 11.258L14.2791 5.44409C14.1157 5.28049 13.894 5.18848 13.6628 5.18827H6.39535V2.57199C6.39535 2.4949 6.42598 2.42095 6.48049 2.36644C6.53501 2.31192 6.60895 2.2813 6.68605 2.2813H17.952L23.2558 7.58507V23.5022ZM14.5349 18.8511C14.5349 19.0824 14.443 19.3042 14.2795 19.4677C14.1159 19.6313 13.8941 19.7232 13.6628 19.7232H6.68605C6.45475 19.7232 6.23293 19.6313 6.06938 19.4677C5.90583 19.3042 5.81395 19.0824 5.81395 18.8511C5.81395 18.6198 5.90583 18.3979 6.06938 18.2344C6.23293 18.0709 6.45475 17.979 6.68605 17.979H13.6628C13.8941 17.979 14.1159 18.0709 14.2795 18.2344C14.443 18.3979 14.5349 18.6198 14.5349 18.8511ZM14.5349 23.5022C14.5349 23.7335 14.443 23.9553 14.2795 24.1189C14.1159 24.2824 13.8941 24.3743 13.6628 24.3743H6.68605C6.45475 24.3743 6.23293 24.2824 6.06938 24.1189C5.90583 23.9553 5.81395 23.7335 5.81395 23.5022C5.81395 23.2709 5.90583 23.0491 6.06938 22.8856C6.23293 22.722 6.45475 22.6301 6.68605 22.6301H13.6628C13.8941 22.6301 14.1159 22.722 14.2795 22.8856C14.443 23.0491 14.5349 23.2709 14.5349 23.5022Z" fill="white"/>
</svg>
