<svg width="25" height="24" viewBox="0 0 25 24" fill="none" xmlns="http://www.w3.org/2000/svg">
<path d="M0.0269611 7.49596C0.00928755 7.55941 0.000219576 7.62495 4.19657e-07 7.69081V9.6516C-0.00031532 10.3954 0.177539 11.1285 0.518678 11.7894C0.859817 12.4504 1.35432 13.02 1.96078 13.4506V22.3967C1.96078 22.5917 2.03825 22.7787 2.17615 22.9166C2.31404 23.0545 2.50107 23.132 2.69608 23.132H22.3039C22.4989 23.132 22.686 23.0545 22.8239 22.9166C22.9617 22.7787 23.0392 22.5917 23.0392 22.3967V13.4506C23.6457 13.02 24.1402 12.4504 24.4813 11.7894C24.8225 11.1285 25.0003 10.3954 25 9.6516V7.69081C25.0001 7.62283 24.9906 7.55517 24.9718 7.48983L23.2145 1.33665C23.1109 0.979591 22.8947 0.665574 22.5981 0.441416C22.3015 0.217258 21.9404 0.0949658 21.5686 0.0927734H3.43137C3.05961 0.0949658 2.6985 0.217258 2.40191 0.441416C2.10531 0.665574 1.88911 0.979591 1.78554 1.33665L0.0269611 7.49596ZM3.19976 1.73616C3.21507 1.68653 3.24576 1.64305 3.28739 1.61199C3.32902 1.58094 3.37944 1.56391 3.43137 1.56336H21.5686C21.6218 1.56344 21.6735 1.58082 21.716 1.61287C21.7584 1.64493 21.7893 1.68992 21.8039 1.74106L23.2904 6.95552H1.71569L3.19976 1.73616ZM9.31372 8.42611H15.6863V9.6516C15.6863 10.4966 15.3506 11.3071 14.753 11.9046C14.1555 12.5022 13.3451 12.8379 12.5 12.8379C11.6549 12.8379 10.8445 12.5022 10.247 11.9046C9.64942 11.3071 9.31372 10.4966 9.31372 9.6516V8.42611ZM1.47059 8.42611H7.84314V9.6516C7.84376 10.2015 7.70207 10.7422 7.43184 11.2211C7.16161 11.6999 6.77204 12.1008 6.30102 12.3845C5.83001 12.6682 5.29358 12.8253 4.7439 12.8403C4.19423 12.8553 3.65002 12.7278 3.16422 12.4702C3.10387 12.4187 3.03558 12.3773 2.96201 12.3477C2.50572 12.0611 2.12958 11.6634 1.86875 11.1919C1.60792 10.7204 1.47093 10.1904 1.47059 9.6516V8.42611ZM21.5686 21.6614H3.43137V14.1442C4.38902 14.4048 5.40486 14.3526 6.33075 13.9952C7.25664 13.6379 8.04415 12.9941 8.57843 12.1577C8.99867 12.8169 9.57829 13.3595 10.2637 13.7354C10.9491 14.1113 11.7183 14.3083 12.5 14.3083C13.2817 14.3083 14.0509 14.1113 14.7363 13.7354C15.4217 13.3595 16.0013 12.8169 16.4216 12.1577C16.9559 12.9941 17.7434 13.6379 18.6693 13.9952C19.5951 14.3526 20.611 14.4048 21.5686 14.1442V21.6614ZM22.038 12.3477C21.9644 12.3773 21.8961 12.4187 21.8358 12.4702C21.35 12.7278 20.8058 12.8553 20.2561 12.8403C19.7064 12.8253 19.17 12.6682 18.699 12.3845C18.228 12.1008 17.8384 11.6999 17.5682 11.2211C17.2979 10.7422 17.1562 10.2015 17.1569 9.6516V8.42611H23.5294V9.6516C23.5291 10.1904 23.3921 10.7204 23.1312 11.1919C22.8704 11.6634 22.4943 12.0611 22.038 12.3477Z" fill="black"/>
</svg>
