<svg width="15" height="15" viewBox="0 0 15 15" fill="none" xmlns="http://www.w3.org/2000/svg">
<path d="M6.81473 1.97597H2.29216C1.94946 1.97597 1.62079 2.12258 1.37847 2.38355C1.13614 2.64452 1 2.99847 1 3.36753V13.1084C1 13.4775 1.13614 13.8315 1.37847 14.0924C1.62079 14.3534 1.94946 14.5 2.29216 14.5H11.3373C11.68 14.5 12.0087 14.3534 12.251 14.0924C12.4933 13.8315 12.6295 13.4775 12.6295 13.1084V8.23799M11.6603 0.932302C11.9174 0.655504 12.266 0.5 12.6295 0.5C12.9929 0.5 13.3415 0.655504 13.5986 0.932302C13.8556 1.2091 14 1.58452 14 1.97597C14 2.36742 13.8556 2.74284 13.5986 3.01964L7.46081 9.62954L4.87649 10.3253L5.52257 7.54221L11.6603 0.932302Z" stroke="#1E1E1E" stroke-linecap="round" stroke-linejoin="round"/>
</svg>
