<svg width="25" height="25" viewBox="0 0 25 25" fill="none" xmlns="http://www.w3.org/2000/svg">
<path d="M16.2107 7.4221C16.2107 7.61524 16.1534 7.80405 16.0461 7.96464C15.9388 8.12524 15.7863 8.25041 15.6078 8.32432C15.4294 8.39824 15.233 8.41757 15.0436 8.37989C14.8542 8.34221 14.6802 8.2492 14.5436 8.11263C14.407 7.97606 14.314 7.80205 14.2763 7.61261C14.2386 7.42318 14.258 7.22682 14.3319 7.04838C14.4058 6.86994 14.531 6.71742 14.6916 6.61011C14.8522 6.50281 15.041 6.44553 15.2341 6.44553C15.4931 6.44553 15.7415 6.54842 15.9247 6.73156C16.1078 6.9147 16.2107 7.1631 16.2107 7.4221ZM20.3494 15.0295C18.905 17.0256 16.7517 18.3713 13.9499 19.0334C11.948 19.5031 9.59642 19.6194 6.91869 19.3928C7.07689 20.6298 7.30703 21.9367 7.60912 23.3137C7.62565 23.3889 7.62719 23.4667 7.61366 23.5425C7.60012 23.6183 7.57177 23.6907 7.53023 23.7555C7.48869 23.8204 7.43478 23.8764 7.37157 23.9204C7.30836 23.9644 7.23709 23.9955 7.16185 24.0119C7.12044 24.0208 7.07823 24.0254 7.03587 24.0256C6.90239 24.0253 6.77299 23.9795 6.6691 23.8957C6.56522 23.8119 6.49306 23.6951 6.46458 23.5647C6.13451 22.0588 5.88809 20.6265 5.72533 19.2678C4.37116 19.1044 2.94082 18.858 1.43431 18.5285C1.3591 18.5119 1.2879 18.4805 1.22479 18.4364C1.16168 18.3922 1.10789 18.336 1.0665 18.271C1.0251 18.206 0.996907 18.1336 0.983526 18.0577C0.970145 17.9818 0.971839 17.904 0.98851 17.8288C1.00518 17.7536 1.03651 17.6824 1.08069 17.6193C1.12488 17.5562 1.18106 17.5024 1.24604 17.461C1.31101 17.4196 1.3835 17.3914 1.45937 17.378C1.53524 17.3647 1.613 17.3664 1.68822 17.383C3.06452 17.6845 4.37051 17.9146 5.60619 18.0735C5.37669 15.4016 5.49583 13.053 5.96654 11.052C6.62474 8.2512 7.96947 6.09788 9.96068 4.65256C14.6042 1.28928 21.3191 2.89475 21.6794 3.10862C21.7646 3.15862 21.8355 3.22955 21.8855 3.31467C22.1033 3.67503 23.7117 10.384 20.3484 15.0305L20.3494 15.0295ZM18.5974 15.2922C16.371 14.9307 14.3147 13.878 12.7198 12.2831C11.1249 10.6882 10.0721 8.6319 9.71068 6.40549C7.25658 8.8176 6.28099 12.7766 6.79369 18.2112C12.2253 18.7219 16.1833 17.7473 18.5964 15.2932L18.5974 15.2922ZM20.904 4.09495C19.656 3.8176 14.5154 2.90647 10.7781 5.51292C10.9711 7.75751 11.9504 9.86189 13.5433 11.455C15.1363 13.0481 17.2405 14.0277 19.4851 14.2209C22.0906 10.4856 21.1804 5.34397 20.904 4.09495Z" fill="white"/>
</svg>
