<svg width="25" height="25" viewBox="0 0 25 25" fill="none" xmlns="http://www.w3.org/2000/svg">
<path d="M23.6111 10.7444V21.5278C23.6111 23.4454 22.0566 25 20.1389 25H15.9722C15.5887 25 15.2778 24.6891 15.2778 24.3056V15.9722C15.2778 15.5887 14.9669 15.2778 14.5834 15.2778H10.4167C10.0332 15.2778 9.72224 15.5887 9.72224 15.9722V24.3056C9.72224 24.6891 9.41133 25 9.0278 25H4.86113C2.94348 25 1.38891 23.4454 1.38891 21.5278V10.7444L1.13593 10.9527C0.839868 11.1965 0.402215 11.1542 0.158401 10.8581C-0.085412 10.5621 -0.0430586 10.1244 0.253001 9.8806L12.0586 0.158382C12.315 -0.0527939 12.6851 -0.0527939 12.9415 0.158382L24.747 9.8806C25.0431 10.1244 25.0855 10.5621 24.8416 10.8581C24.5978 11.1542 24.1602 11.1965 23.8641 10.9527L23.6111 10.7444ZM22.2315 9.60826L12.5 1.59407L2.76849 9.60826C2.77461 9.64534 2.7778 9.68341 2.7778 9.72222V21.5278C2.7778 22.6784 3.71054 23.6111 4.86113 23.6111H8.33335V15.9722C8.33335 14.8216 9.26609 13.8889 10.4167 13.8889H14.5834C15.7339 13.8889 16.6667 14.8216 16.6667 15.9722V23.6111H20.1389C21.2895 23.6111 22.2222 22.6784 22.2222 21.5278V9.72222C22.2222 9.68341 22.2254 9.64534 22.2315 9.60826Z" fill="white"/>
</svg>
