<svg width="26" height="20" viewBox="0 0 26 20" fill="none" xmlns="http://www.w3.org/2000/svg">
<path d="M19.8402 0.514648H7.11293C5.48602 0.516453 3.92626 1.16354 2.77586 2.31394C1.62545 3.46434 0.978367 5.0241 0.976562 6.65101V17.5601C0.976562 17.982 1.14418 18.3867 1.44253 18.685C1.74088 18.9834 2.14554 19.151 2.56747 19.151H24.3857C24.8076 19.151 25.2122 18.9834 25.5106 18.685C25.809 18.3867 25.9766 17.982 25.9766 17.5601V6.65101C25.9748 5.0241 25.3277 3.46434 24.1773 2.31394C23.0269 1.16354 21.4671 0.516453 19.8402 0.514648ZM24.6129 6.65101V7.78738H20.522V1.92828C21.6573 2.09333 22.6952 2.66128 23.4463 3.52838C24.1974 4.39548 24.6115 5.50384 24.6129 6.65101ZM14.6129 11.4237H12.3402V7.33283H14.6129V11.4237ZM11.6584 12.7874H15.2947C15.4756 12.7874 15.649 12.7155 15.7769 12.5877C15.9047 12.4598 15.9766 12.2864 15.9766 12.1056V9.15101H19.1584V17.7874H7.79474V9.15101H10.9766V12.1056C10.9766 12.2864 11.0484 12.4598 11.1763 12.5877C11.3041 12.7155 11.4776 12.7874 11.6584 12.7874ZM15.9766 7.78738V6.65101C15.9766 6.47018 15.9047 6.29676 15.7769 6.16889C15.649 6.04103 15.4756 5.96919 15.2947 5.96919H11.6584C11.4776 5.96919 11.3041 6.04103 11.1763 6.16889C11.0484 6.29676 10.9766 6.47018 10.9766 6.65101V7.78738H7.79474V1.87828H19.1584V7.78738H15.9766ZM6.43111 1.92828V7.78738H2.3402V6.65101C2.34163 5.50384 2.75572 4.39548 3.50681 3.52838C4.2579 2.66128 5.29587 2.09333 6.43111 1.92828ZM2.3402 17.5601V9.15101H6.43111V17.7874H2.56747C2.5072 17.7874 2.44939 17.7634 2.40677 17.7208C2.36414 17.6782 2.3402 17.6204 2.3402 17.5601ZM24.3857 17.7874H20.522V9.15101H24.6129V17.5601C24.6129 17.6204 24.589 17.6782 24.5464 17.7208C24.5037 17.7634 24.4459 17.7874 24.3857 17.7874Z" fill="black"/>
</svg>
