<svg width="25" height="26" viewBox="0 0 25 26" fill="none" xmlns="http://www.w3.org/2000/svg">
<path d="M0.294131 12.6643C0.450146 12.7813 0.646254 12.8316 0.839312 12.804C1.03237 12.7764 1.20657 12.6733 1.32358 12.5172C1.94001 11.6953 2.73935 11.0282 3.65827 10.5688C4.5772 10.1093 5.59048 9.87009 6.61788 9.87009C7.64527 9.87009 8.65855 10.1093 9.57748 10.5688C10.4964 11.0282 11.2957 11.6953 11.9122 12.5172C12.0294 12.6731 12.2037 12.776 12.3967 12.8033C12.5897 12.8307 12.7858 12.7802 12.9416 12.6631C12.9973 12.6221 13.0465 12.5729 13.0875 12.5172C13.7039 11.6953 14.5032 11.0282 15.4222 10.5688C16.3411 10.1093 17.3544 9.87009 18.3818 9.87009C19.4092 9.87009 20.4224 10.1093 21.3414 10.5688C22.2603 11.0282 23.0596 11.6953 23.6761 12.5172C23.7932 12.6733 23.9676 12.7763 24.1608 12.8038C24.3539 12.8313 24.5501 12.7809 24.7061 12.6637C24.8621 12.5465 24.9652 12.3722 24.9927 12.179C25.0201 11.9858 24.9697 11.7896 24.8526 11.6336C23.9268 10.3937 22.6636 9.44666 21.214 8.9056C21.9866 8.31364 22.5544 7.49447 22.8375 6.56318C23.1206 5.6319 23.1047 4.63533 22.7922 3.71351C22.4797 2.79169 21.8862 1.99096 21.0951 1.42385C20.304 0.856742 19.3551 0.551758 18.3818 0.551758C17.4084 0.551758 16.4595 0.856742 15.6684 1.42385C14.8773 1.99096 14.2838 2.79169 13.9713 3.71351C13.6588 4.63533 13.643 5.6319 13.926 6.56318C14.2091 7.49447 14.7769 8.31364 15.5496 8.9056C14.3899 9.33771 13.3462 10.0328 12.5004 10.9363C11.6543 10.0327 10.6102 9.33754 9.45008 8.9056C10.2227 8.31364 10.7905 7.49447 11.0736 6.56318C11.3567 5.6319 11.3408 4.63533 11.0283 3.71351C10.7158 2.79169 10.1223 1.99096 9.33121 1.42385C8.54012 0.856742 7.59123 0.551758 6.61788 0.551758C5.64452 0.551758 4.69563 0.856742 3.90454 1.42385C3.11346 1.99096 2.51996 2.79169 2.20743 3.71351C1.89491 4.63533 1.87907 5.6319 2.16216 6.56318C2.44524 7.49447 3.01301 8.31364 3.78567 8.9056C2.33568 9.44669 1.07238 10.3943 0.147067 11.6349C0.0300557 11.7909 -0.0201865 11.987 0.00739332 12.18C0.0349731 12.3731 0.138116 12.5473 0.294131 12.6643ZM18.383 2.02669C19.0132 2.02669 19.6292 2.21357 20.1532 2.56369C20.6772 2.91381 21.0856 3.41146 21.3268 3.99369C21.568 4.57593 21.6311 5.21661 21.5081 5.8347C21.3852 6.4528 21.0817 7.02056 20.6361 7.46618C20.1905 7.91181 19.6227 8.21528 19.0046 8.33823C18.3865 8.46118 17.7458 8.39807 17.1636 8.1569C16.5814 7.91573 16.0837 7.50733 15.7336 6.98333C15.3835 6.45933 15.1966 5.84328 15.1966 5.21307C15.1966 4.36799 15.5323 3.55752 16.1299 2.95996C16.7274 2.36239 17.5379 2.02669 18.383 2.02669ZM6.61788 2.02669C7.24808 2.02669 7.86414 2.21357 8.38813 2.56369C8.91213 2.91381 9.32054 3.41146 9.56171 3.99369C9.80288 4.57593 9.86598 5.21661 9.74303 5.8347C9.62009 6.4528 9.31661 7.02056 8.87099 7.46618C8.42536 7.91181 7.85761 8.21528 7.23951 8.33823C6.62141 8.46118 5.98074 8.39807 5.3985 8.1569C4.81626 7.91573 4.31862 7.50733 3.96849 6.98333C3.61837 6.45933 3.43149 5.84328 3.43149 5.21307C3.43149 4.36799 3.7672 3.55752 4.36476 2.95996C4.96233 2.36239 5.77279 2.02669 6.61788 2.02669ZM21.2152 21.6511C21.9879 21.0592 22.5556 20.24 22.8387 19.3087C23.1218 18.3774 23.106 17.3809 22.7934 16.459C22.4809 15.5372 21.8874 14.7365 21.0963 14.1694C20.3052 13.6023 19.3563 13.2973 18.383 13.2973C17.4096 13.2973 16.4607 13.6023 15.6697 14.1694C14.8786 14.7365 14.2851 15.5372 13.9725 16.459C13.66 17.3809 13.6442 18.3774 13.9273 19.3087C14.2103 20.24 14.7781 21.0592 15.5508 21.6511C14.3907 22.0831 13.3465 22.7782 12.5004 23.6818C11.6543 22.7782 10.6102 22.0831 9.45008 21.6511C10.2227 21.0592 10.7905 20.24 11.0736 19.3087C11.3567 18.3774 11.3408 17.3809 11.0283 16.459C10.7158 15.5372 10.1223 14.7365 9.33121 14.1694C8.54012 13.6023 7.59123 13.2973 6.61788 13.2973C5.64452 13.2973 4.69563 13.6023 3.90454 14.1694C3.11346 14.7365 2.51996 15.5372 2.20743 16.459C1.89491 17.3809 1.87907 18.3774 2.16216 19.3087C2.44524 20.24 3.01301 21.0592 3.78567 21.6511C2.33568 22.1922 1.07238 23.1398 0.147067 24.3804C0.0891289 24.4576 0.0469736 24.5455 0.0230084 24.6391C-0.000956822 24.7326 -0.00626281 24.83 0.00739332 24.9256C0.0210495 25.0212 0.0534003 25.1131 0.102599 25.1962C0.151797 25.2793 0.21688 25.3519 0.294131 25.4098C0.371381 25.4678 0.459288 25.5099 0.55283 25.5339C0.646372 25.5579 0.743719 25.5632 0.839312 25.5495C0.934905 25.5359 1.02687 25.5035 1.10996 25.4543C1.19305 25.4051 1.26564 25.34 1.32358 25.2628C1.94001 24.4409 2.73935 23.7738 3.65827 23.3143C4.5772 22.8548 5.59048 22.6156 6.61788 22.6156C7.64527 22.6156 8.65855 22.8548 9.57748 23.3143C10.4964 23.7738 11.2957 24.4409 11.9122 25.2628C12.0294 25.4186 12.2037 25.5215 12.3967 25.5488C12.5897 25.5762 12.7858 25.5258 12.9416 25.4086C12.9973 25.3676 13.0465 25.3185 13.0875 25.2628C13.7039 24.4409 14.5032 23.7738 15.4222 23.3143C16.3411 22.8548 17.3544 22.6156 18.3818 22.6156C19.4092 22.6156 20.4224 22.8548 21.3414 23.3143C22.2603 23.7738 23.0596 24.4409 23.6761 25.2628C23.7932 25.4188 23.9676 25.5219 24.1608 25.5493C24.3539 25.5768 24.5501 25.5264 24.7061 25.4092C24.8621 25.2921 24.9652 25.1177 24.9927 24.9245C25.0201 24.7314 24.9697 24.5352 24.8526 24.3792C23.9272 23.1395 22.6644 22.1924 21.2152 21.6511ZM6.61788 14.7722C7.24808 14.7722 7.86414 14.9591 8.38813 15.3092C8.91213 15.6593 9.32054 16.157 9.56171 16.7392C9.80288 17.3215 9.86598 17.9621 9.74303 18.5802C9.62009 19.1983 9.31661 19.7661 8.87099 20.2117C8.42536 20.6573 7.85761 20.9608 7.23951 21.0838C6.62141 21.2067 5.98074 21.1436 5.3985 20.9024C4.81626 20.6613 4.31862 20.2529 3.96849 19.7289C3.61837 19.2049 3.43149 18.5888 3.43149 17.9586C3.43149 17.1135 3.7672 16.3031 4.36476 15.7055C4.96233 15.1079 5.77279 14.7722 6.61788 14.7722ZM18.383 14.7722C19.0132 14.7722 19.6292 14.9591 20.1532 15.3092C20.6772 15.6593 21.0856 16.157 21.3268 16.7392C21.568 17.3215 21.6311 17.9621 21.5081 18.5802C21.3852 19.1983 21.0817 19.7661 20.6361 20.2117C20.1905 20.6573 19.6227 20.9608 19.0046 21.0838C18.3865 21.2067 17.7458 21.1436 17.1636 20.9024C16.5814 20.6613 16.0837 20.2529 15.7336 19.7289C15.3835 19.2049 15.1966 18.5888 15.1966 17.9586C15.1966 17.1135 15.5323 16.3031 16.1299 15.7055C16.7274 15.1079 17.5379 14.7722 18.383 14.7722Z" fill="white"/>
</svg>
