<svg width="30" height="30" viewBox="0 0 30 30" fill="none" xmlns="http://www.w3.org/2000/svg">
<path d="M15 0C12.0333 0 9.13319 0.879735 6.66645 2.52796C4.19971 4.17618 2.27713 6.51886 1.14181 9.25975C0.00649927 12.0006 -0.290551 15.0166 0.288227 17.9264C0.867006 20.8361 2.29562 23.5088 4.3934 25.6066C6.49119 27.7044 9.16393 29.133 12.0736 29.7118C14.9834 30.2906 17.9994 29.9935 20.7403 28.8582C23.4811 27.7229 25.8238 25.8003 27.472 23.3335C29.1203 20.8668 30 17.9667 30 15C30 11.0218 28.4196 7.20644 25.6066 4.3934C22.7936 1.58035 18.9783 0 15 0ZM13.8462 5.76923C13.8462 5.46321 13.9677 5.16973 14.1841 4.95334C14.4005 4.73695 14.694 4.61538 15 4.61538C15.306 4.61538 15.5995 4.73695 15.8159 4.95334C16.0323 5.16973 16.1538 5.46321 16.1538 5.76923V15C16.1538 15.306 16.0323 15.5995 15.8159 15.8159C15.5995 16.0323 15.306 16.1538 15 16.1538C14.694 16.1538 14.4005 16.0323 14.1841 15.8159C13.9677 15.5995 13.8462 15.306 13.8462 15V5.76923ZM15 26.5385C12.5244 26.5387 10.1144 25.7428 8.12597 24.2682C6.13749 22.7936 4.67598 20.7186 3.95731 18.3497C3.23864 15.9807 3.30091 13.4435 4.13494 11.1126C4.96897 8.7818 6.53052 6.781 8.58895 5.40577C8.71468 5.31685 8.85694 5.254 9.00734 5.22092C9.15775 5.18784 9.31325 5.18521 9.46469 5.21317C9.61612 5.24113 9.76043 5.29913 9.88911 5.38373C10.0178 5.46834 10.1282 5.57785 10.2139 5.7058C10.2996 5.83376 10.3588 5.97757 10.388 6.12877C10.4173 6.27996 10.416 6.43548 10.3841 6.58616C10.3523 6.73684 10.2907 6.87962 10.2028 7.0061C10.115 7.13258 10.0027 7.24019 9.8726 7.32259C8.22581 8.42266 6.97647 10.0232 6.30911 11.8878C5.64176 13.7524 5.59178 15.7822 6.16655 17.6773C6.74132 19.5725 7.91036 21.2326 9.50101 22.4124C11.0917 23.5922 13.0196 24.2291 15 24.2291C16.9804 24.2291 18.9083 23.5922 20.499 22.4124C22.0896 21.2326 23.2587 19.5725 23.8335 17.6773C24.4082 15.7822 24.3582 13.7524 23.6909 11.8878C23.0235 10.0232 21.7742 8.42266 20.1274 7.32259C19.9973 7.24019 19.885 7.13258 19.7972 7.0061C19.7093 6.87962 19.6477 6.73684 19.6159 6.58616C19.5841 6.43548 19.5827 6.27996 19.612 6.12877C19.6412 5.97757 19.7004 5.83376 19.7861 5.7058C19.8718 5.57785 19.9822 5.46834 20.1109 5.38373C20.2396 5.29913 20.3839 5.24113 20.5353 5.21317C20.6868 5.18521 20.8423 5.18784 20.9927 5.22092C21.1431 5.254 21.2853 5.31685 21.4111 5.40577C23.4695 6.781 25.031 8.7818 25.8651 11.1126C26.6991 13.4435 26.7614 15.9807 26.0427 18.3497C25.324 20.7186 23.8625 22.7936 21.874 24.2682C19.8856 25.7428 17.4756 26.5387 15 26.5385Z" fill="white"/>
</svg>
