<svg width="25" height="22" viewBox="0 0 25 22" fill="none" xmlns="http://www.w3.org/2000/svg">
<path d="M0.681818 17.9157H24.3182C24.499 17.9157 24.6724 17.8439 24.8003 17.716C24.9282 17.5882 25 17.4148 25 17.2339C25 17.0531 24.9282 16.8797 24.8003 16.7518C24.6724 16.6239 24.499 16.5521 24.3182 16.5521H23.1818V14.5067C23.1789 11.7926 22.1441 9.1813 20.2871 7.20199C18.4302 5.22267 15.8901 4.0235 13.1818 3.84757V1.55211H15.2273C15.4081 1.55211 15.5815 1.48028 15.7094 1.35241C15.8373 1.22455 15.9091 1.05112 15.9091 0.870295C15.9091 0.689465 15.8373 0.516042 15.7094 0.388176C15.5815 0.260311 15.4081 0.188477 15.2273 0.188477H9.77273C9.5919 0.188477 9.41848 0.260311 9.29061 0.388176C9.16274 0.516042 9.09091 0.689465 9.09091 0.870295C9.09091 1.05112 9.16274 1.22455 9.29061 1.35241C9.41848 1.48028 9.5919 1.55211 9.77273 1.55211H11.8182V3.84757C9.10988 4.0235 6.5698 5.22267 4.71288 7.20199C2.85595 9.1813 1.82113 11.7926 1.81818 14.5067V16.5521H0.681818C0.500989 16.5521 0.327566 16.6239 0.1997 16.7518C0.0718341 16.8797 0 17.0531 0 17.2339C0 17.4148 0.0718341 17.5882 0.1997 17.716C0.327566 17.8439 0.500989 17.9157 0.681818 17.9157ZM3.18182 14.5067C3.18182 12.0353 4.16355 9.66521 5.91105 7.91771C7.65855 6.17021 10.0287 5.18848 12.5 5.18848C14.9713 5.18848 17.3415 6.17021 19.089 7.91771C20.8364 9.66521 21.8182 12.0353 21.8182 14.5067V16.5521H3.18182V14.5067ZM25 20.8703C25 21.0511 24.9282 21.2245 24.8003 21.3524C24.6724 21.4803 24.499 21.5521 24.3182 21.5521H0.681818C0.500989 21.5521 0.327566 21.4803 0.1997 21.3524C0.0718341 21.2245 0 21.0511 0 20.8703C0 20.6895 0.0718341 20.516 0.1997 20.3882C0.327566 20.2603 0.500989 20.1885 0.681818 20.1885H24.3182C24.499 20.1885 24.6724 20.2603 24.8003 20.3882C24.9282 20.516 25 20.6895 25 20.8703Z" fill="white"/>
</svg>
