
<svg width="25" height="23" viewBox="0 0 25 23" fill="none" xmlns="http://www.w3.org/2000/svg">
<path d="M3.41654 8.63424H21.578C21.8166 8.6357 22.0525 8.58344 22.2682 8.48134C22.4839 8.37923 22.6738 8.22991 22.824 8.04442C22.9741 7.85894 23.0806 7.64205 23.1355 7.40982C23.1904 7.1776 23.1924 6.93599 23.1412 6.7029C22.3187 2.8209 17.8426 0 12.4973 0C7.15199 0 2.67582 2.8209 1.85329 6.7029C1.80215 6.93599 1.80412 7.1776 1.85904 7.40982C1.91396 7.64205 2.02043 7.85894 2.17057 8.04442C2.3207 8.22991 2.51065 8.37923 2.72634 8.48134C2.94202 8.58344 3.17792 8.6357 3.41654 8.63424ZM3.18933 6.98919C3.86303 3.78203 7.86772 1.3633 12.4973 1.3633C17.1268 1.3633 21.1315 3.78203 21.8132 6.98919C21.8216 7.02322 21.822 7.05873 21.8145 7.09295C21.8069 7.12717 21.7915 7.15918 21.7695 7.18646C21.7475 7.21374 21.7195 7.23557 21.6876 7.25022C21.6558 7.26488 21.621 7.27197 21.5859 7.27094H3.41654C3.38151 7.27197 3.34671 7.26488 3.31487 7.25022C3.28303 7.23557 3.25501 7.21374 3.23301 7.18646C3.21101 7.15918 3.19561 7.12717 3.18804 7.09295C3.18046 7.05873 3.1809 7.02322 3.18933 6.98919ZM24.0853 14.5828L19.3251 16.3119L15.0228 14.5907C14.8602 14.5256 14.6787 14.5256 14.5161 14.5907L10.2251 16.3074L5.93411 14.5907C5.77852 14.5284 5.60541 14.5256 5.44786 14.5828L0.449091 16.4005C0.298372 16.4552 0.17176 16.5613 0.0915135 16.7001C0.0112671 16.8389 -0.0174774 17.0016 0.0103331 17.1595C0.0381435 17.3174 0.120729 17.4605 0.243571 17.5635C0.366413 17.6666 0.521649 17.723 0.681988 17.7229C0.761388 17.7227 0.840163 17.7089 0.914885 17.682L2.73262 17.0231V17.9501C2.73262 19.0951 3.18746 20.1932 3.99708 21.0028C4.80669 21.8124 5.90477 22.2673 7.04974 22.2673H17.9562C19.1011 22.2673 20.1992 21.8124 21.0088 21.0028C21.8184 20.1932 22.2733 19.0951 22.2733 17.9501V16.6925L24.5511 15.8643C24.7211 15.8025 24.8595 15.6758 24.936 15.5119C25.0125 15.3481 25.0208 15.1606 24.959 14.9906C24.8972 14.8207 24.7705 14.6823 24.6066 14.6058C24.4428 14.5293 24.2553 14.521 24.0853 14.5828ZM20.9043 17.9501C20.9043 18.7335 20.5931 19.4849 20.0391 20.0388C19.4852 20.5928 18.7339 20.904 17.9505 20.904H7.04406C6.26066 20.904 5.50935 20.5928 4.9554 20.0388C4.40145 19.4849 4.09024 18.7335 4.09024 17.9501V16.5278L5.6694 15.9529L9.97175 17.6741C10.1344 17.7392 10.3158 17.7392 10.4784 17.6741L14.7694 15.9574L19.0604 17.6741C19.216 17.7364 19.3891 17.7392 19.5467 17.682L20.9043 17.1878V17.9501ZM0.000337102 11.5881C0.000337102 11.4073 0.0721536 11.2339 0.199988 11.1061C0.327822 10.9782 0.501203 10.9064 0.681988 10.9064H24.3126C24.4933 10.9064 24.6667 10.9782 24.7946 11.1061C24.9224 11.2339 24.9942 11.4073 24.9942 11.5881C24.9942 11.7689 24.9224 11.9422 24.7946 12.0701C24.6667 12.1979 24.4933 12.2697 24.3126 12.2697H0.681988C0.501203 12.2697 0.327822 12.1979 0.199988 12.0701C0.0721536 11.9422 0.000337102 11.7689 0.000337102 11.5881Z" fill="white"/>
</svg>
