<svg width="25" height="29" viewBox="0 0 25 29" fill="none" xmlns="http://www.w3.org/2000/svg">
<path d="M24.9364 14.9825L21.3649 5.70336C21.2863 5.49897 21.1403 5.33029 20.953 5.22745C20.7658 5.12462 20.5494 5.09432 20.3426 5.14197L13.3929 6.74727V4.19549C13.3929 3.9494 13.2988 3.71338 13.1313 3.53936C12.9639 3.36534 12.7368 3.26758 12.5 3.26758C12.2632 3.26758 12.0361 3.36534 11.8687 3.53936C11.7012 3.71338 11.6071 3.9494 11.6071 4.19549V7.16251L4.2701 8.85712C4.12864 8.88959 3.99691 8.95735 3.88627 9.05455C3.77563 9.15175 3.68941 9.27547 3.63506 9.41503V9.42199L0.0636331 18.6942C0.020909 18.8048 -0.000697815 18.923 1.71816e-05 19.0422C1.71816e-05 21.7459 2.73885 22.7538 4.4643 22.7538C6.18974 22.7538 8.92858 21.7459 8.92858 19.0422C8.92929 18.923 8.90768 18.8048 8.86496 18.6942L5.68304 10.4323L11.6071 9.06706V23.6817H9.82143C9.58463 23.6817 9.35753 23.7795 9.19009 23.9535C9.02264 24.1275 8.92858 24.3636 8.92858 24.6097C8.92858 24.8558 9.02264 25.0918 9.19009 25.2658C9.35753 25.4398 9.58463 25.5376 9.82143 25.5376H15.1786C15.4154 25.5376 15.6425 25.4398 15.8099 25.2658C15.9774 25.0918 16.0714 24.8558 16.0714 24.6097C16.0714 24.3636 15.9774 24.1275 15.8099 23.9535C15.6425 23.7795 15.4154 23.6817 15.1786 23.6817H13.3929V8.65181L19.0848 7.33881L16.135 14.9825C16.0923 15.0931 16.0707 15.2113 16.0714 15.3305C16.0714 18.0342 18.8103 19.0422 20.5357 19.0422C22.2611 19.0422 25 18.0342 25 15.3305C25.0007 15.2113 24.9791 15.0931 24.9364 14.9825ZM4.4643 20.898C3.6239 20.898 1.92412 20.4793 1.79354 19.1999L4.4643 12.2614L7.13505 19.1999C7.00447 20.4793 5.3047 20.898 4.4643 20.898ZM20.5357 17.1863C19.6953 17.1863 17.9955 16.7676 17.8649 15.4882L20.5357 8.54974L23.2065 15.4882C23.0759 16.7676 21.3761 17.1863 20.5357 17.1863Z" fill="white"/>
</svg>
