<svg width="25" height="32" viewBox="0 0 25 32" fill="none" xmlns="http://www.w3.org/2000/svg">
<path d="M18.0233 20.0891C18.0233 20.3204 17.9314 20.5422 17.7678 20.7057C17.6043 20.8693 17.3825 20.9612 17.1512 20.9612H7.84884C7.61754 20.9612 7.39572 20.8693 7.23217 20.7057C7.06863 20.5422 6.97674 20.3204 6.97674 20.0891C6.97674 19.8578 7.06863 19.636 7.23217 19.4724C7.39572 19.3089 7.61754 19.217 7.84884 19.217H17.1512C17.3825 19.217 17.6043 19.3089 17.7678 19.4724C17.9314 19.636 18.0233 19.8578 18.0233 20.0891ZM17.1512 14.5658H7.84884C7.61754 14.5658 7.39572 14.6577 7.23217 14.8212C7.06863 14.9848 6.97674 15.2066 6.97674 15.4379C6.97674 15.6692 7.06863 15.891 7.23217 16.0546C7.39572 16.2181 7.61754 16.31 7.84884 16.31H17.1512C17.3825 16.31 17.6043 16.2181 17.7678 16.0546C17.9314 15.891 18.0233 15.6692 18.0233 15.4379C18.0233 15.2066 17.9314 14.9848 17.7678 14.8212C17.6043 14.6577 17.3825 14.5658 17.1512 14.5658ZM25 4.97279V29.3914C25 29.9311 24.7856 30.4487 24.404 30.8303C24.0224 31.2119 23.5048 31.4263 22.9651 31.4263H2.03488C1.4952 31.4263 0.977618 31.2119 0.596004 30.8303C0.214389 30.4487 0 29.9311 0 29.3914V4.97279C0 4.43311 0.214389 3.91553 0.596004 3.53391C0.977618 3.1523 1.4952 2.93791 2.03488 2.93791H7.4375C8.06395 2.20841 8.84066 1.62291 9.71444 1.22151C10.5882 0.820118 11.5384 0.612305 12.5 0.612305C13.4616 0.612305 14.4118 0.820118 15.2856 1.22151C16.1593 1.62291 16.936 2.20841 17.5625 2.93791H22.9651C23.5048 2.93791 24.0224 3.1523 24.404 3.53391C24.7856 3.91553 25 4.43311 25 4.97279ZM7.55814 7.29837V7.58907H17.4419V7.29837C17.4419 5.98771 16.9212 4.73073 15.9944 3.80395C15.0676 2.87717 13.8107 2.35651 12.5 2.35651C11.1893 2.35651 9.93235 2.87717 9.00558 3.80395C8.0788 4.73073 7.55814 5.98771 7.55814 7.29837ZM23.2558 4.97279C23.2558 4.89569 23.2252 4.82175 23.1707 4.76724C23.1162 4.71272 23.0422 4.68209 22.9651 4.68209H18.6526C19.0054 5.50918 19.1869 6.39919 19.186 7.29837V8.46116C19.186 8.69246 19.0942 8.91428 18.9306 9.07783C18.7671 9.24138 18.5452 9.33326 18.314 9.33326H6.68605C6.45475 9.33326 6.23293 9.24138 6.06938 9.07783C5.90583 8.91428 5.81395 8.69246 5.81395 8.46116V7.29837C5.81313 6.39919 5.99459 5.50918 6.34738 4.68209H2.03488C1.95779 4.68209 1.88385 4.71272 1.82933 4.76724C1.77481 4.82175 1.74419 4.89569 1.74419 4.97279V29.3914C1.74419 29.4685 1.77481 29.5424 1.82933 29.597C1.88385 29.6515 1.95779 29.6821 2.03488 29.6821H22.9651C23.0422 29.6821 23.1162 29.6515 23.1707 29.597C23.2252 29.5424 23.2558 29.4685 23.2558 29.3914V4.97279Z" fill="#363636"/>
</svg>
