<svg width="25" height="28" viewBox="0 0 25 28" fill="none" xmlns="http://www.w3.org/2000/svg">
<path d="M24.1078 6.67433L13.3235 0.769915C13.0714 0.63066 12.788 0.557617 12.5 0.557617C12.212 0.557617 11.9286 0.63066 11.6765 0.769915L0.892157 6.67433C0.62231 6.82198 0.397121 7.03945 0.240164 7.30399C0.0832082 7.56853 0.000258416 7.87041 0 8.178V19.8986C0.000258416 20.2062 0.0832082 20.5081 0.240164 20.7726C0.397121 21.0371 0.62231 21.2546 0.892157 21.4023L11.6765 27.3067C11.9287 27.4457 12.212 27.5186 12.5 27.5186C12.788 27.5186 13.0713 27.4457 13.3235 27.3067L24.1078 21.4023C24.3777 21.2546 24.6029 21.0371 24.7598 20.7726C24.9168 20.5081 24.9997 20.2062 25 19.8986V8.178C24.9997 7.87041 24.9168 7.56853 24.7598 7.30399C24.6029 7.03945 24.3777 6.82198 24.1078 6.67433ZM12.3775 2.05913C12.4135 2.03939 12.454 2.02905 12.4951 2.02905C12.5362 2.02905 12.5767 2.03939 12.6127 2.05913L22.8566 7.66575L18.6973 9.94149L8.33946 4.27237L12.3775 2.05913ZM11.7647 25.6805L1.59314 20.1131C1.55555 20.0914 1.5244 20.0601 1.50287 20.0224C1.48134 19.9847 1.4702 19.942 1.47059 19.8986V8.97212L11.7647 14.6094V25.6805ZM2.14338 7.66575L6.80882 5.1106L17.1654 10.7797L12.5 13.3324L2.14338 7.66575ZM23.5294 19.8986C23.5298 19.942 23.5187 19.9847 23.4971 20.0224C23.4756 20.0601 23.4444 20.0914 23.4069 20.1131L13.2353 25.6805V14.6069L17.6471 12.1915V16.9795C17.6471 17.1745 17.7245 17.3615 17.8624 17.4994C18.0003 17.6373 18.1873 17.7148 18.3824 17.7148C18.5774 17.7148 18.7644 17.6373 18.9023 17.4994C19.0402 17.3615 19.1176 17.1745 19.1176 16.9795V11.3876L23.5294 8.97212V19.8986Z" fill="white"/>
</svg>
