<svg width="25" height="26" viewBox="0 0 25 26" fill="none" xmlns="http://www.w3.org/2000/svg">
<path d="M23.5579 2.98142L2.63779 23.9015C2.47255 24.0555 2.25399 24.1393 2.02817 24.1353C1.80235 24.1314 1.58689 24.0399 1.42718 23.8802C1.26748 23.7205 1.176 23.505 1.17201 23.2792C1.16803 23.0534 1.25185 22.8348 1.40583 22.6696L22.3259 1.74946C22.4067 1.66749 22.5029 1.60231 22.6089 1.55769C22.715 1.51307 22.8288 1.4899 22.9439 1.4895C23.059 1.4891 23.173 1.51148 23.2793 1.55536C23.3857 1.59924 23.4823 1.66375 23.5636 1.74516C23.645 1.82657 23.7094 1.92328 23.7531 2.0297C23.7969 2.13612 23.8191 2.25015 23.8186 2.36522C23.818 2.48028 23.7947 2.5941 23.75 2.70011C23.7052 2.80612 23.64 2.90222 23.5579 2.98287V2.98142ZM1.44069 8.75915C0.633926 7.94958 0.132869 6.88529 0.0229177 5.74767C-0.0870339 4.61004 0.200924 3.46949 0.837716 2.5204C1.47451 1.57131 2.42072 0.872422 3.51509 0.542839C4.60947 0.213257 5.78427 0.273382 6.83927 0.712968C7.89428 1.15255 8.7642 1.9444 9.30077 2.95354C9.83734 3.96268 10.0074 5.12667 9.78184 6.24712C9.55632 7.36757 8.94922 8.37515 8.06402 9.09813C7.17882 9.8211 6.0703 10.2147 4.92738 10.2119C4.27905 10.2121 3.63712 10.0838 3.03866 9.83443C2.44021 9.58508 1.89709 9.21961 1.44069 8.75915ZM1.73125 5.27246C1.73149 6.01189 1.98811 6.72836 2.45739 7.29979C2.92666 7.87123 3.57954 8.26228 4.30481 8.40631C5.03007 8.55034 5.78284 8.43845 6.43485 8.08969C7.08687 7.74093 7.59779 7.17689 7.88056 6.49367C8.16333 5.81045 8.20046 5.05032 7.98563 4.34279C7.77079 3.63526 7.31728 3.02411 6.70236 2.61346C6.08744 2.20282 5.34917 2.01809 4.61332 2.09074C3.87747 2.1634 3.18957 2.48895 2.66684 3.01193C2.36918 3.30815 2.13323 3.66047 1.97263 4.04849C1.81204 4.43651 1.73 4.85253 1.73125 5.27246ZM24.9758 20.3814C24.9786 21.5243 24.585 22.6329 23.862 23.5181C23.139 24.4033 22.1315 25.0104 21.011 25.2359C19.8905 25.4614 18.7266 25.2914 17.7174 24.7548C16.7083 24.2183 15.9164 23.3483 15.4768 22.2933C15.0373 21.2383 14.9771 20.0635 15.3067 18.9691C15.6363 17.8748 16.3352 16.9286 17.2843 16.2918C18.2334 15.655 19.3739 15.367 20.5115 15.477C21.6492 15.5869 22.7135 16.088 23.523 16.8947C23.9835 17.3511 24.349 17.8943 24.5983 18.4927C24.8477 19.0912 24.976 19.7331 24.9758 20.3814ZM23.2325 20.3814C23.2336 19.9615 23.1516 19.5455 22.991 19.1575C22.8304 18.7695 22.5945 18.4172 22.2969 18.1209C21.7741 17.5979 21.0863 17.2724 20.3504 17.1997C19.6146 17.1271 18.8763 17.3118 18.2614 17.7224C17.6464 18.1331 17.1929 18.7442 16.9781 19.4518C16.7633 20.1593 16.8004 20.9194 17.0832 21.6026C17.3659 22.2859 17.8769 22.8499 18.5289 23.1987C19.1809 23.5474 19.9336 23.6593 20.6589 23.5153C21.3842 23.3712 22.0371 22.9802 22.5063 22.4088C22.9756 21.8373 23.2322 21.1209 23.2325 20.3814Z" fill="black"/>
</svg>
