<svg width="26" height="25" viewBox="0 0 26 25" fill="none" xmlns="http://www.w3.org/2000/svg">
<path d="M25.9766 13.3644C25.9766 13.576 25.8925 13.7789 25.7429 13.9286C25.5932 14.0782 25.3903 14.1623 25.1787 14.1623H10.2852C10.0736 14.1623 9.87066 14.0782 9.72103 13.9286C9.5714 13.7789 9.48734 13.576 9.48734 13.3644C9.48734 13.1528 9.5714 12.9498 9.72103 12.8002C9.87066 12.6506 10.0736 12.5665 10.2852 12.5665H25.1787C25.3903 12.5665 25.5932 12.6506 25.7429 12.8002C25.8925 12.9498 25.9766 13.1528 25.9766 13.3644ZM10.2852 5.65169H25.1787C25.3903 5.65169 25.5932 5.56763 25.7429 5.418C25.8925 5.26837 25.9766 5.06543 25.9766 4.85382C25.9766 4.64222 25.8925 4.43928 25.7429 4.28965C25.5932 4.14002 25.3903 4.05596 25.1787 4.05596H10.2852C10.0736 4.05596 9.87066 4.14002 9.72103 4.28965C9.5714 4.43928 9.48734 4.64222 9.48734 4.85382C9.48734 5.06543 9.5714 5.26837 9.72103 5.418C9.87066 5.56763 10.0736 5.65169 10.2852 5.65169ZM25.1787 21.0771H10.2852C10.0736 21.0771 9.87066 21.1611 9.72103 21.3108C9.5714 21.4604 9.48734 21.6633 9.48734 21.875C9.48734 22.0866 9.5714 22.2895 9.72103 22.4391C9.87066 22.5888 10.0736 22.6728 10.2852 22.6728H25.1787C25.3903 22.6728 25.5932 22.5888 25.7429 22.4391C25.8925 22.2895 25.9766 22.0866 25.9766 21.875C25.9766 21.6633 25.8925 21.4604 25.7429 21.3108C25.5932 21.1611 25.3903 21.0771 25.1787 21.0771ZM2.13102 3.44027L3.10442 2.95357V10.1729C3.10442 10.3845 3.18848 10.5875 3.33811 10.7371C3.48774 10.8867 3.69068 10.9708 3.90228 10.9708C4.11389 10.9708 4.31683 10.8867 4.46646 10.7371C4.61609 10.5875 4.70015 10.3845 4.70015 10.1729V1.66236C4.70019 1.52638 4.66548 1.39265 4.5993 1.27385C4.53313 1.15506 4.43769 1.05515 4.32206 0.98361C4.20642 0.912068 4.07441 0.871268 3.93857 0.865084C3.80273 0.858899 3.66757 0.887535 3.5459 0.948273L1.41826 2.01209C1.22887 2.10661 1.08479 2.27249 1.01771 2.47324C0.950623 2.674 0.966035 2.89317 1.06055 3.08256C1.15507 3.27195 1.32095 3.41604 1.5217 3.48312C1.72246 3.5502 1.94163 3.53479 2.13102 3.44027ZM6.02992 23.2047H3.37037L6.22673 19.383C6.46269 19.0796 6.63506 18.7317 6.73354 18.3602C6.83201 17.9887 6.85457 17.6012 6.79987 17.2207C6.74611 16.8346 6.61485 16.4634 6.41398 16.1293C6.21312 15.7952 5.94679 15.5052 5.63099 15.2766C4.99635 14.816 4.20825 14.6184 3.43137 14.7252C2.65449 14.832 1.94894 15.2349 1.46215 15.8497C1.27734 16.0883 1.13024 16.3538 1.02598 16.637C0.953503 16.8359 0.963013 17.0554 1.05242 17.2473C1.14182 17.4392 1.30379 17.5878 1.5027 17.6602C1.70161 17.7327 1.92117 17.7232 2.11307 17.6338C2.30497 17.5444 2.45349 17.3824 2.52597 17.1835C2.57276 17.0557 2.63915 16.9359 2.72277 16.8285C2.95293 16.5393 3.28585 16.3503 3.65206 16.3007C4.01826 16.2512 4.38946 16.3449 4.68818 16.5625C4.83129 16.6658 4.95214 16.7969 5.04352 16.9479C5.1349 17.0989 5.19495 17.2668 5.22009 17.4415C5.24318 17.6124 5.23152 17.7863 5.18583 17.9526C5.14013 18.119 5.06132 18.2744 4.95414 18.4096L4.94616 18.4215L1.13635 23.5252C1.04783 23.6437 0.994009 23.7846 0.980907 23.9319C0.967804 24.0793 0.995934 24.2274 1.06215 24.3597C1.12837 24.492 1.23007 24.6033 1.35589 24.6811C1.48171 24.759 1.6267 24.8003 1.77464 24.8005H6.02992C6.24153 24.8005 6.44447 24.7164 6.5941 24.5668C6.74373 24.4171 6.82779 24.2142 6.82779 24.0026C6.82779 23.791 6.74373 23.588 6.5941 23.4384C6.44447 23.2888 6.24153 23.2047 6.02992 23.2047Z" fill="black"/>
</svg>
