<svg width="25" height="26" viewBox="0 0 25 26" fill="none" xmlns="http://www.w3.org/2000/svg">
<path d="M24.9162 5.24857L22.7886 0.993247C22.7223 0.860565 22.6204 0.748969 22.4943 0.670985C22.3681 0.593 22.2228 0.551713 22.0745 0.551758H2.92553C2.77723 0.551713 2.63186 0.593 2.50572 0.670985C2.37958 0.748969 2.27768 0.860565 2.21144 0.993247L0.0837767 5.24857C0.0289246 5.35938 0.000261775 5.48131 0 5.60495V23.6901C0 24.1838 0.196143 24.6573 0.54528 25.0065C0.894417 25.3556 1.36795 25.5518 1.8617 25.5518H23.1383C23.6321 25.5518 24.1056 25.3556 24.4547 25.0065C24.8039 24.6573 25 24.1838 25 23.6901V5.60495C24.9997 5.48131 24.9711 5.35938 24.9162 5.24857ZM3.41888 2.1475H21.5811L22.9109 4.80708H2.0891L3.41888 2.1475ZM23.1383 23.956H1.8617C1.79117 23.956 1.72352 23.928 1.67364 23.8781C1.62376 23.8282 1.59574 23.7606 1.59574 23.6901V6.40282H23.4043V23.6901C23.4043 23.7606 23.3762 23.8282 23.3264 23.8781C23.2765 23.928 23.2088 23.956 23.1383 23.956ZM17.3191 13.5518C17.3975 13.6248 17.4604 13.7129 17.504 13.8108C17.5476 13.9086 17.5711 14.0143 17.573 14.1214C17.5749 14.2285 17.5552 14.335 17.515 14.4343C17.4749 14.5337 17.4152 14.6239 17.3394 14.6997C17.2636 14.7754 17.1734 14.8352 17.074 14.8753C16.9747 14.9154 16.8683 14.9351 16.7611 14.9332C16.654 14.9313 16.5484 14.9079 16.4505 14.8643C16.3526 14.8207 16.2645 14.7578 16.1915 14.6794L13.2979 11.7871V20.4986C13.2979 20.7102 13.2138 20.9131 13.0642 21.0627C12.9146 21.2124 12.7116 21.2964 12.5 21.2964C12.2884 21.2964 12.0854 21.2124 11.9358 21.0627C11.7862 20.9131 11.7021 20.7102 11.7021 20.4986V11.7871L8.80851 14.6794C8.65726 14.8204 8.45721 14.8971 8.25051 14.8934C8.04381 14.8898 7.84659 14.806 7.7004 14.6599C7.55422 14.5137 7.47048 14.3165 7.46683 14.1098C7.46319 13.9031 7.53992 13.703 7.68085 13.5518L11.9362 9.29644C12.0858 9.14702 12.2886 9.0631 12.5 9.0631C12.7114 9.0631 12.9142 9.14702 13.0638 9.29644L17.3191 13.5518Z" fill="white"/>
</svg>
